<svg width="38" height="37" viewBox="0 0 38 37" fill="none" xmlns="http://www.w3.org/2000/svg">
<path d="M27.2155 18.6157C27.2109 16.5193 26.3251 14.525 24.7808 13.1352C23.2366 11.7457 21.1812 11.0931 19.1332 11.3426C17.0852 11.5916 15.2397 12.719 14.062 14.4402C13.7699 14.8728 13.273 15.114 12.7583 15.073C12.2436 15.0321 11.7896 14.7155 11.5671 14.2419C11.3446 13.7687 11.3875 13.2106 11.6796 12.7784C13.3236 10.3572 15.9097 8.768 18.7833 8.41345C21.6565 8.05852 24.5416 8.97222 26.7082 10.9228C28.8748 12.8734 30.1151 15.6742 30.1151 18.6158C30.1151 21.5573 28.8749 24.3581 26.7082 26.3087C24.5416 28.2593 21.6565 29.173 18.7833 28.8181C15.9097 28.4635 13.3236 26.8743 11.6796 24.4531C11.3875 24.0209 11.3446 23.4627 11.5671 22.9896C11.7896 22.516 12.2436 22.1994 12.7583 22.1585C13.273 22.1175 13.7699 22.3587 14.062 22.7913C15.2397 24.5125 17.0852 25.6398 19.1332 25.8889C21.1812 26.1383 23.2366 25.4858 24.7808 24.0963C26.3251 22.7065 27.211 20.7122 27.2155 18.6158L27.2155 18.6157ZM4.89272 13.3302C5.24196 13.4904 5.63956 13.5032 5.99817 13.3656C6.35643 13.2279 6.64633 12.951 6.80401 12.5961C8.15934 9.53214 10.5072 7.03327 13.4565 5.51624C16.4055 3.99888 19.7775 3.55582 23.0094 4.26005C26.2414 4.96433 29.1378 6.77369 31.2158 9.38633C33.2934 11.9986 34.4272 15.2565 34.4272 18.6159C34.4272 21.9752 33.2934 25.2329 31.2158 27.8454C29.1378 30.458 26.2414 32.2673 23.0093 32.9716C19.7776 33.6759 16.4056 33.2328 13.4565 31.7155C10.5072 30.1984 8.15933 27.6996 6.80401 24.6356C6.58279 24.1722 6.13908 23.8606 5.63442 23.814C5.12976 23.7678 4.63802 23.9933 4.33878 24.4088C4.0392 24.8244 3.97601 25.369 4.17207 25.8439C5.79858 29.5203 8.6163 32.5187 12.1554 34.3385C15.6944 36.1583 19.7404 36.6902 23.6185 35.8447C27.4965 34.9995 30.972 32.828 33.4652 29.693C35.9584 26.558 37.3184 22.6489 37.3184 18.6186C37.3184 14.5876 35.9585 10.6785 33.4652 7.54335C30.9719 4.40837 27.4963 2.23719 23.6185 1.39168C19.7404 0.5465 15.6945 1.07805 12.1554 2.89788C8.6163 4.71803 5.79858 7.71643 4.17207 11.3925C4.01535 11.7467 4.00341 12.1495 4.13853 12.5129C4.27364 12.876 4.54484 13.17 4.89277 13.3306L4.89272 13.3302ZM1.63516 22.589C1.90603 22.8643 2.27332 23.019 2.6564 23.019C3.03948 23.019 3.40677 22.8643 3.67764 22.589L6.14387 20.0843L17.9496 20.0843L17.5262 20.5146L17.5265 20.5146C17.1721 20.8875 17.0373 21.4227 17.1721 21.9228C17.3072 22.4226 17.6916 22.8132 18.1833 22.9506C18.6754 23.0875 19.202 22.9506 19.569 22.5904L22.4583 19.654C22.7291 19.3787 22.8813 19.0054 22.8813 18.6161C22.8813 18.2268 22.7291 17.8535 22.4583 17.5782L19.569 14.6418C19.202 14.2816 18.6754 14.1446 18.1833 14.2816C17.6916 14.419 17.3072 14.8096 17.1721 15.3094C17.0373 15.8095 17.1721 16.3447 17.5265 16.7176L17.9496 17.1479L6.14387 17.1479L3.67798 14.6418C3.31101 14.2816 2.78444 14.1446 2.29235 14.2816C1.80059 14.4189 1.41623 14.8096 1.2811 15.3094C1.14631 15.8095 1.2811 16.3447 1.63549 16.7176L3.50321 18.6161L1.63516 20.5146L1.63548 20.5146C1.36461 20.7899 1.21241 21.1632 1.21241 21.5525C1.21241 21.9418 1.36461 22.3151 1.63548 22.5904L1.63516 22.589Z" fill="#383838" stroke="white"/>
</svg>
