<svg width="20" height="37" viewBox="0 0 20 37" fill="none" xmlns="http://www.w3.org/2000/svg">
<path d="M12.5499 27.2953C12.5499 30.1721 12.5425 33.0417 12.5573 35.9185C12.5573 36.2334 12.4684 36.3193 12.1425 36.3121C9.60877 36.2978 7.08249 36.2978 4.54879 36.3121C4.2006 36.3121 4.08947 36.2334 4.08947 35.8827C4.10429 30.1793 4.09688 24.483 4.09688 18.7795C4.09688 18.207 4.16355 18.2786 3.55606 18.2714C2.48183 18.2714 1.40761 18.2643 0.333381 18.2786C0.0740846 18.2786 0 18.1999 0 17.9494C0.00740846 16.1389 0.00740846 14.3212 0 12.5107C0 12.2602 0.0740846 12.1815 0.333381 12.1887C1.45947 12.203 2.57814 12.1815 3.70423 12.203C4.00798 12.2102 4.10429 12.1314 4.10429 11.8237C4.08947 10.2995 4.10429 8.76804 4.09688 7.24378C4.08947 5.97714 4.2895 4.75344 4.94885 3.63708C5.66006 2.42053 6.72688 1.58326 8.04559 1.03939C9.15685 0.581397 10.3274 0.366712 11.5276 0.302307C13.9057 0.173496 16.2912 0.280838 18.6693 0.237901C18.936 0.230745 19.0027 0.323775 19.0027 0.567085C18.9953 2.44915 18.9953 4.33838 19.0027 6.22045C19.0027 6.5067 18.8916 6.54963 18.6323 6.54963C17.2617 6.54248 15.8911 6.54248 14.5206 6.54248C13.3797 6.54248 12.5573 7.33681 12.5573 8.42455C12.5573 9.54806 12.5722 10.6644 12.5499 11.7879C12.5425 12.11 12.6536 12.1887 12.9722 12.1887C14.8466 12.1744 16.7283 12.1887 18.6026 12.1744C18.9138 12.1744 19.0175 12.2602 18.9805 12.5608C18.8693 13.484 18.773 14.4071 18.6693 15.3302C18.573 16.2176 18.41 17.0978 18.2619 17.978C18.2174 18.2285 18.1359 18.2857 17.8988 18.2857C16.2912 18.2786 14.691 18.2786 13.0833 18.2857C12.4536 18.2857 12.5425 18.207 12.5425 18.8224C12.5499 21.642 12.5499 24.4687 12.5499 27.2953Z" fill="#D03333"/>
</svg>
