<svg width="41" height="40" viewBox="0 0 41 40" fill="none" xmlns="http://www.w3.org/2000/svg">
<path d="M30.6063 20.0294C30.6063 14.4816 25.9712 9.91553 20.2428 9.91553C14.5144 9.91553 9.87939 14.439 9.87939 20.0294C9.87939 20.7974 9.96694 21.6083 10.1856 22.4191C10.5355 23.9554 11.1913 25.2357 12.1097 26.8571C12.5907 27.7105 13.0717 28.2229 13.4216 28.6069C13.9463 29.1617 14.0338 29.2897 14.0338 30.2712V32.5755C14.0338 33.5569 14.6024 34.3678 15.4332 34.7946C15.8706 37.6112 17.2261 39.4035 20.2434 39.4035C23.2607 39.4035 24.6162 37.6111 25.0536 34.7946C25.8845 34.3677 26.4531 33.5572 26.4531 32.5755V30.2712C26.4531 29.2897 26.5842 29.1617 27.0652 28.6069C27.4151 28.2229 27.8961 27.7105 28.3771 26.8571C29.3391 25.2354 29.995 23.9554 30.3012 22.4191C30.519 21.6082 30.6062 20.7974 30.6062 20.0294H30.6063ZM23.7848 30.442V32.4903H16.701V30.442L23.7848 30.442ZM20.243 36.8004C19.4997 36.8004 18.5813 36.8004 18.1441 35.0507H22.2982C21.9047 36.8004 20.9863 36.8004 20.243 36.8004ZM27.7641 21.8216C27.5018 23.059 26.9332 24.1259 26.1024 25.577C25.7525 26.1745 25.4027 26.5585 25.0967 26.8999C24.7905 27.2413 24.5282 27.5399 24.3098 27.8813L16.1765 27.8813C15.9578 27.5399 15.6955 27.1985 15.3895 26.8999C15.0833 26.5584 14.7774 26.217 14.3839 25.577C13.553 24.1688 12.9844 23.1019 12.7222 21.8644V21.8219C12.5474 21.2244 12.5035 20.5844 12.5035 20.0295C12.5035 15.8901 15.9578 12.476 20.2433 12.476C24.5285 12.476 27.9832 15.8472 27.9832 20.0295C27.9829 20.5841 27.8953 21.1815 27.7642 21.8216L27.7641 21.8216Z" fill="#383838" stroke="white" stroke-width="0.5"/>
<path d="M38.6958 18.7065H35.5038C34.7605 18.7065 34.1919 19.2614 34.1919 19.9869C34.1919 20.7123 34.7604 21.2672 35.5038 21.2672H38.6958C39.4392 21.2672 40.0077 20.7123 40.0077 19.9869C40.0077 19.2614 39.3956 18.7065 38.6958 18.7065Z" fill="#383838" stroke="white" stroke-width="0.5"/>
<path d="M30.9996 10.7691C31.3494 10.7691 31.6554 10.6411 31.918 10.3851L34.1919 8.1659C34.7166 7.65388 34.7166 6.84302 34.1919 6.37351C33.6673 5.8615 32.8364 5.8615 32.3554 6.37351L30.0815 8.59273C29.5568 9.10475 29.5568 9.9156 30.0815 10.3851C30.3435 10.6411 30.6933 10.7691 30.9996 10.7691Z" fill="#383838" stroke="white" stroke-width="0.5"/>
<path d="M20.2426 6.41635C20.9859 6.41635 21.5545 5.86148 21.5545 5.13602V2.02081C21.5545 1.29537 20.9859 0.740479 20.2426 0.740479C19.4992 0.740479 18.9307 1.29535 18.9307 2.02081V5.13602C18.9307 5.81889 19.4992 6.41635 20.2426 6.41635Z" fill="#383838" stroke="white" stroke-width="0.5"/>
<path d="M8.56746 10.3852C8.82978 10.6412 9.17963 10.7692 9.48589 10.7692C9.79213 10.7692 10.1417 10.6412 10.4043 10.3852C10.929 9.87316 10.929 9.06234 10.4043 8.59286L8.13042 6.37374C7.60578 5.86175 6.77495 5.86175 6.29387 6.37374C5.76923 6.88574 5.76923 7.69655 6.29387 8.16604L8.56746 10.3852Z" fill="#383838" stroke="white" stroke-width="0.5"/>
<path d="M6.33732 19.9869C6.33732 19.2614 5.76877 18.7065 5.02542 18.7065H1.83339C1.09006 18.7065 0.521484 19.2614 0.521484 19.9869C0.521484 20.7123 1.09004 21.2672 1.83339 21.2672H5.02542C5.72483 21.2669 6.33732 20.7123 6.33732 19.9869Z" fill="#383838" stroke="white" stroke-width="0.5"/>
<path d="M8.56729 29.5888L6.29338 31.808C5.76874 32.3201 5.76874 33.1309 6.29338 33.6004C6.5557 33.8564 6.90555 33.9844 7.21181 33.9844C7.51808 33.9844 7.8676 33.8564 8.13025 33.6004L10.4042 31.3812C10.9288 30.8692 10.9288 30.0583 10.4042 29.5888C9.87922 29.0765 9.04837 29.0765 8.56737 29.5888H8.56729Z" fill="#383838" stroke="white" stroke-width="0.5"/>
<path d="M31.918 29.5886C31.3934 29.0766 30.5625 29.0766 30.0815 29.5886C29.5568 30.1006 29.5568 30.9115 30.0815 31.381L32.3554 33.6002C32.6177 33.8562 32.9675 33.9842 33.2738 33.9842C33.58 33.9842 33.9296 33.8562 34.1922 33.6002C34.7169 33.0882 34.7169 32.2773 34.1922 31.8078L31.918 29.5886Z" fill="#383838" stroke="white" stroke-width="0.5"/>
</svg>
