<svg width="41" height="40" viewBox="0 0 41 40" fill="none" xmlns="http://www.w3.org/2000/svg">
<path d="M40.8927 20C40.8927 22.8858 40.9007 25.7717 40.8927 28.6656C40.8765 32.8573 38.9257 35.9608 35.4432 38.1534C33.4037 39.427 31.1385 39.9913 28.7362 39.9913C23.4803 39.9913 18.2324 40.0155 12.9764 39.9832C9.32462 39.959 6.18071 38.6693 3.68977 35.9608C2.15006 34.2841 1.23107 32.3092 0.965046 30.0279C0.908617 29.5442 0.900555 29.0686 0.900555 28.585C0.900555 22.8375 0.892494 17.09 0.900555 11.3425C0.924739 7.1427 2.87557 4.03921 6.35806 1.84662C8.41369 0.564915 10.687 0.00870587 13.1054 0.00870587C18.3452 0.00870587 23.5851 -0.0154771 28.8249 0.0167669C32.4928 0.0409499 35.6448 1.33877 38.1357 4.06339C39.6593 5.73202 40.5702 7.70697 40.8282 9.96405C40.933 10.8508 40.8846 11.7375 40.8927 12.6161C40.9007 15.0828 40.8927 17.5414 40.8927 20ZM3.8913 20C3.8913 22.9584 3.88324 25.9087 3.8913 28.8671C3.89936 30.8985 4.641 32.6477 6.02754 34.0987C7.8897 36.0414 10.2114 36.9845 12.8796 37.0007C18.1759 37.0329 23.4641 37.0087 28.7604 37.0087C30.4694 37.0087 32.0978 36.6379 33.5811 35.7835C36.3542 34.1954 37.9181 31.8577 37.9181 28.585C37.9181 22.7649 37.9181 16.9529 37.9181 11.1329C37.9181 9.11764 37.1845 7.37647 35.806 5.93355C33.96 3.98278 31.6302 3.02352 28.97 3.0074C23.6173 2.96709 18.2727 2.99128 12.92 2.99128C11.2513 2.99128 9.67125 3.38627 8.22022 4.20849C5.45519 5.80457 3.88324 8.14226 3.8913 11.415C3.8913 14.2767 3.8913 17.1383 3.8913 20Z" fill="#D03333"/>
<path d="M20.9246 28.5456C15.717 28.5456 11.5413 24.386 11.5493 19.1946C11.5574 14.1403 15.7896 9.99683 20.9568 10.0049C26.1483 10.0049 30.3402 14.1725 30.3321 19.3155C30.324 24.4102 26.108 28.5456 20.9246 28.5456ZM20.9246 25.5629C24.4635 25.5629 27.3494 22.7496 27.3494 19.2914C27.3494 15.817 24.4877 12.9875 20.9568 12.9875C17.4179 12.9875 14.532 15.8009 14.532 19.2591C14.532 22.7335 17.3938 25.5629 20.9246 25.5629Z" fill="#D03333"/>
<path d="M29.4424 9.24769C29.4424 8.10276 30.321 7.18359 31.4173 7.18359C32.5136 7.18359 33.3923 8.11082 33.3923 9.24769C33.3923 10.3684 32.5136 11.2876 31.4335 11.2957C30.3372 11.3037 29.4424 10.3926 29.4424 9.24769Z" fill="#D03333"/>
</svg>
