<svg width="45" height="43" viewBox="0 0 45 43" fill="none" xmlns="http://www.w3.org/2000/svg">
<path d="M22.5152 5.99472V5.95437C22.8218 5.85245 23.0469 5.56815 23.0469 5.22572V1.49335C23.0469 1.06294 22.6912 0.724365 22.2652 0.724365C21.8392 0.724365 21.4834 1.06294 21.4834 1.49335V5.2261C21.4834 5.65625 21.8393 5.99472 22.2652 5.99472H22.5152Z" fill="#383838" stroke="#383838" stroke-width="0.5"/>
<path d="M8.69644 9.56765L8.69645 9.56766C8.84947 9.71701 9.04929 9.79075 9.24708 9.79075C9.44486 9.79075 9.64469 9.717 9.79771 9.56766C10.1059 9.26689 10.1059 8.77701 9.79771 8.47624L7.09327 5.83686C6.78849 5.53941 6.29715 5.53941 5.99237 5.83686C5.68419 6.13762 5.68418 6.6275 5.99236 6.92827C5.99236 6.92827 5.99236 6.92828 5.99237 6.92828L8.69644 9.56765Z" fill="#383838" stroke="#383838" stroke-width="0.5"/>
<path d="M1.53178 22.4965H5.35652C5.78253 22.4965 6.1383 22.1579 6.1383 21.7275C6.1383 21.2971 5.78253 20.9585 5.35652 20.9585H1.53178C1.10577 20.9585 0.75 21.2971 0.75 21.7275C0.75 22.1579 1.10577 22.4965 1.53178 22.4965Z" fill="#383838" stroke="#383838" stroke-width="0.5"/>
<path d="M5.99175 37.6176C6.14457 37.7672 6.34454 37.8408 6.54214 37.8408H6.54215C6.73994 37.8408 6.93977 37.767 7.09278 37.6177C7.09278 37.6177 7.09279 37.6177 7.09279 37.6177L9.79724 34.9783C10.1054 34.6776 10.1054 34.1877 9.79724 33.8869C9.49246 33.5895 9.00112 33.5895 8.69634 33.8869L5.99188 36.5263C5.68374 36.827 5.6837 37.3168 5.99175 37.6176ZM5.99175 37.6176C5.99169 37.6175 5.99162 37.6175 5.99155 37.6174L6.16649 37.4388L5.99188 37.6177C5.99184 37.6177 5.9918 37.6176 5.99175 37.6176Z" fill="#383838" stroke="#383838" stroke-width="0.5"/>
<path d="M22.2652 42.7306C22.6912 42.7306 23.0469 42.392 23.0469 41.9616V38.2289C23.0469 37.7985 22.6912 37.46 22.2652 37.46C21.8392 37.46 21.4834 37.7985 21.4834 38.2289V41.9616C21.4834 42.392 21.8392 42.7306 22.2652 42.7306Z" fill="#383838" stroke="#383838" stroke-width="0.5"/>
<path d="M35.6653 34.0597L35.834 33.8869L38.5385 36.5263C38.8466 36.8271 38.8466 37.3169 38.5385 37.6177C38.5385 37.6177 38.5385 37.6177 38.5385 37.6177L38.3638 37.4388C38.26 37.5401 38.1239 37.5908 37.9878 37.5908H37.9878C37.8517 37.5908 37.7156 37.5401 37.6122 37.4388L35.6653 34.0597ZM35.6653 34.0597L35.834 33.8869C35.5292 33.5895 35.0379 33.5895 34.7331 33.8869C34.4249 34.1877 34.4249 34.6776 34.7331 34.9783L37.4372 37.6174C37.4373 37.6174 37.4373 37.6175 37.4374 37.6175L35.6653 34.0597Z" fill="#383838" stroke="#383838" stroke-width="0.5"/>
<path d="M42.9986 20.9587H39.1739C38.7479 20.9587 38.3921 21.2973 38.3921 21.7277C38.3921 22.1581 38.7479 22.4967 39.1739 22.4967H42.9986C43.4246 22.4967 43.7804 22.1581 43.7804 21.7277C43.7804 21.2973 43.4246 20.9587 42.9986 20.9587Z" fill="#383838" stroke="#383838" stroke-width="0.5"/>
<path d="M34.7331 9.56757L34.9058 9.39055L34.7331 9.56757C34.8861 9.71685 35.0858 9.79065 35.2834 9.79065H35.2834C35.4811 9.79065 35.681 9.7169 35.834 9.56757C35.834 9.56757 35.834 9.56757 35.834 9.56757L38.5384 6.92826C38.8466 6.6275 38.8466 6.13761 38.5384 5.83685C38.2336 5.53941 37.7423 5.53941 37.4375 5.83685L34.7331 8.47616C34.4249 8.77692 34.4249 9.26681 34.7331 9.56757Z" fill="#383838" stroke="#383838" stroke-width="0.5"/>
<path d="M14.378 18.5879L14.3782 18.5876C14.6235 18.0713 15.268 17.9265 15.7817 18.166L15.7859 18.168L15.786 18.168L15.7872 18.1686L15.7872 18.1686C16.3007 18.4115 16.6022 19.0031 16.355 19.522M14.378 18.5879L16.1292 19.4146M14.378 18.5879C12.9327 21.6381 13.8922 25.3851 16.7056 27.9174L16.7062 27.918C16.7967 27.9989 16.8973 28.065 17.0039 28.1147C17.3927 28.2961 17.8807 28.2674 18.2069 27.965L18.2071 27.9649C18.6373 27.5653 18.5593 26.9178 18.1311 26.5328M14.378 18.5879L17.9639 26.7186M16.355 19.522C16.3549 19.5221 16.3549 19.5221 16.3548 19.5222L16.1292 19.4146M16.355 19.522C16.355 19.5219 16.355 19.5218 16.3551 19.5217L16.1292 19.4146M16.355 19.522C15.2874 21.7744 15.977 24.5946 18.1311 26.5328M16.1292 19.4146C15.0057 21.7846 15.7429 24.7203 17.9639 26.7186M18.1311 26.5328L17.9639 26.7186M18.1311 26.5328C18.1311 26.5328 18.1311 26.5328 18.1312 26.5328L17.9639 26.7186" fill="#383838" stroke="#383838" stroke-width="0.5"/>
<path d="M28.4986 24.1852C28.0879 25.4822 27.3411 26.5773 26.3424 27.3591M28.4986 24.1852L28.7369 24.2607L28.4986 24.1852ZM28.4986 24.1852C29.5817 20.7624 27.9541 17.024 24.9222 15.834L26.3424 27.3591M26.3424 27.3591L26.3256 27.3721C25.8904 27.7099 25.7948 28.3568 26.0875 28.8237C26.2717 29.1178 26.5748 29.2859 26.8931 29.2859C27.0911 29.2859 27.2894 29.2209 27.459 29.0884C28.8017 28.0457 29.7964 26.5857 30.3393 24.8715L30.3394 24.8714C31.7558 20.395 29.6465 15.4426 25.5855 13.8489L25.5854 13.8488C25.0554 13.6413 24.5029 13.9615 24.3332 14.4984C24.1664 15.026 24.4065 15.6318 24.9221 15.834L26.3424 27.3591Z" fill="#383838" stroke="#383838" stroke-width="0.5"/>
<path d="M34.7826 24.6626L34.7824 24.6626C34.3617 24.5899 34.071 24.1943 34.1485 23.7698C35.1817 18.0875 31.8782 12.5628 26.2806 10.6375C24.4627 10.0123 22.5814 9.82089 20.6855 10.0674M34.7826 24.6626L11.2935 15.2046L11.1567 15.4139C11.1568 15.414 11.1569 15.414 11.157 15.4141C11.5133 15.6467 11.9965 15.5537 12.2369 15.2016C14.1567 12.3893 17.2354 10.5169 20.6855 10.0674M34.7826 24.6626C34.8285 24.6705 34.8738 24.6742 34.9184 24.6742M34.7826 24.6626L34.9184 24.6742M20.6855 10.0674L20.6533 9.8195M20.6855 10.0674L20.6533 9.8195M20.6533 9.8195C22.5876 9.56798 24.5078 9.76341 26.3619 10.4011C32.0723 12.3651 35.4506 18.0066 34.3944 23.8147L20.6533 9.8195ZM34.9184 24.6742C35.2856 24.6742 35.6189 24.4171 35.6873 24.0408L34.9184 24.6742Z" fill="#383838" stroke="#383838" stroke-width="0.5"/>
<path d="M14.936 32.9409L14.9356 32.9406C14.572 32.7135 14.4608 32.2366 14.6955 31.876L14.6959 31.8754L14.6959 31.8754C14.9301 31.5178 15.4116 31.4184 15.7711 31.6415L15.7714 31.6417C16.547 32.1246 17.3846 32.5225 18.2603 32.8234L18.2604 32.8234C21.88 34.0683 25.7862 33.5869 28.9813 31.5036L14.936 32.9409ZM14.936 32.9409C15.8121 33.4862 16.7573 33.935 17.7446 34.2748L17.7447 34.2748M14.936 32.9409L17.7447 34.2748M17.7447 34.2748C19.2366 34.7879 20.7726 35.0411 22.2971 35.0411C24.9451 35.0411 27.5583 34.2768 29.8458 32.785L29.8459 32.7849M17.7447 34.2748L29.8459 32.7849M29.8459 32.7849C30.2054 32.5503 30.3057 32.0703 30.0621 31.7146M29.8459 32.7849L30.0621 31.7146M30.0621 31.7146C29.821 31.3622 29.3378 31.2707 28.9816 31.5034L30.0621 31.7146Z" fill="#383838" stroke="#383838" stroke-width="0.5"/>
<path d="M12.7101 31.2078L12.7102 31.2079C12.8631 31.355 13.0608 31.4272 13.257 31.4272C13.4562 31.4272 13.6576 31.3525 13.8111 31.201L13.8113 31.2009C14.1176 30.8982 14.1139 30.4081 13.8044 30.1093L13.8042 30.109C13.4163 29.7354 13.0512 29.3327 12.7198 28.9122L12.7198 28.9122C10.2158 25.7378 9.53566 21.5929 10.8977 17.822L10.8978 17.8219C11.0442 17.4161 10.8238 16.9778 10.419 16.8387L10.4187 16.8386C10.0172 16.7012 9.56999 16.9041 9.42408 17.307L9.40722 17.3536L9.40726 17.3543C7.88854 21.6093 8.66445 26.2797 11.4843 29.8548C11.8592 30.3302 12.2718 30.7856 12.7101 31.2078Z" fill="#383838" stroke="#383838" stroke-width="0.5"/>
<circle cx="22.5303" cy="22.0359" r="3" fill="#383838"/>
</svg>
